<?xml version="1.0" ?><svg enable-background="new 0 0 400 400" id="Layer_1" version="1.1" viewBox="0 0 400 400" xml:space="preserve" xmlns="http://www.w3.org/2000/svg" xmlns:xlink="http://www.w3.org/1999/xlink"><g><path d="M291.826,202c0.533-7.467,0.521-15.264-3.147-21.706l-0.075-0.137l-1.214-2.295v54.976   c0,1.38-1.12,2.5-2.5,2.5H116.35c-1.38,0-2.5-1.12-2.5-2.5v-56.927l-2.542,4.407c-3.654,6.418-3.667,14.215-3.134,21.682   l1.095,15.33c0.531,7.437-1.539,14.833-5.669,20.918v3.91c0,2.42,1.96,4.39,4.38,4.39h185.28c2.42,0,4.38-1.97,4.38-4.39v-2.198   c-4.954-6.379-7.491-14.481-6.909-22.631L291.826,202z" fill="none"/><polygon fill="none" points="118.85,167.246 118.85,230.339 282.39,230.339 282.39,168.408 276.827,157.889 124.249,157.889  "/><path d="M127.815,141.689c1.22,3.602,1.041,7.627-0.713,11.2h147.046c-1.754-3.573-1.931-7.599-0.71-11.2H127.815z" fill="none"/><path d="M355.002,226.424c-1.775-12.326-3.452-23.97-4.356-36.515c-0.969-6.646-2.844-11.535-5.892-15.366   c-15.497-18.402-29.909-35.187-42.837-49.888c-3.194-3.633-7.811-5.716-12.664-5.716H252.56c-5.146,0.644-5.19,6.045-5.178,6.667   c0.018,0.963,0.358,5.753,5.115,6.084h34.423c0.099,0,0.196,0.01,0.294,0.016c4.343-0.045,8.654,1.81,11.591,5.427l0.186,0.242   l37.219,51.976c1.607,2.245,1.091,5.369-1.154,6.977c-2.245,1.607-5.368,1.091-6.977-1.154l-37.114-51.83   c-1.603-1.872-4.381-2.2-6.38-0.74c-2.033,1.486-2.545,4.301-1.165,6.408l0.237,0.402l13.752,26.005   c4.948,8.739,5.036,18.282,4.393,27.295l-1.095,15.33c-0.507,7.096,2.372,14.145,7.7,18.856l11.474,10.146   c2.068,1.83,2.263,4.989,0.433,7.058c-0.987,1.117-2.364,1.688-3.747,1.688c-1.177,0-2.359-0.413-3.311-1.254l-7.014-6.203   c-2.313,4.85-7.257,8.215-12.98,8.215h-0.078c3.907,4.82,8.227,9.264,13.643,12.327c6.044,2.537,12.975,3.417,20.072,2.547   c10.062-1.706,18.837-7.588,24.166-16.183c1.054-3.042,2.129-5.194,3.085-7.104c2.101-4.202,2.584-9.622,1.521-17.057   L355.002,226.424z" fill="none"/><path d="M94.654,247.542l-7.909,6.994c-0.951,0.841-2.134,1.254-3.311,1.254c-1.383,0-2.759-0.57-3.747-1.688   c-1.83-2.069-1.636-5.229,0.433-7.058l11.474-10.146c5.328-4.712,8.207-11.761,7.7-18.856l-1.095-15.331   c-0.646-9.038-0.555-18.608,4.433-27.366l15.204-26.336c1.38-2.107,0.867-4.922-1.166-6.408c-2.008-1.469-4.802-1.128-6.399,0.764   l-38.396,51.87c-1.643,2.22-4.774,2.688-6.993,1.044c-2.22-1.643-2.688-4.774-1.044-6.993l38.611-52.154   c3.226-3.971,8.107-5.824,12.869-5.359c0.265-0.043,0.53-0.084,0.802-0.084h31.383c4.757-0.331,5.097-5.121,5.115-6.084   c0.013-0.622-0.032-6.022-5.178-6.667h-36.693c-4.854,0-9.47,2.083-12.664,5.717c-12.928,14.701-27.34,31.485-42.837,49.887   c-3.048,3.831-4.923,8.719-5.892,15.366c-0.904,12.545-2.581,24.189-4.356,36.515l-0.668,4.655   c-1.063,7.436-0.579,12.855,1.521,17.057c0.956,1.91,2.031,4.062,3.085,7.104c5.329,8.595,14.104,14.477,24.166,16.183   c7.097,0.87,14.028-0.01,20.072-2.547c5.437-3.076,9.771-7.542,13.69-12.384C101.322,256.063,96.656,252.484,94.654,247.542z" fill="none"/><path d="M365.57,229.665l-0.671-4.667c-1.757-12.202-3.417-23.727-4.292-35.982l-0.037-0.351   c-1.229-8.604-3.786-15.092-8.046-20.417l-0.08-0.097c-15.558-18.476-30.031-35.332-43.018-50.1   c-5.094-5.792-12.446-9.113-20.174-9.113h-36.966l-0.484,0.023c-9.664,0.94-14.569,9.183-14.419,16.838   c0.041,2.114,0.424,4.09,1.083,5.888h-76.933c0.659-1.798,1.042-3.774,1.083-5.888c0.15-7.656-4.755-15.898-14.419-16.838   l-37.45-0.023c-7.728,0-15.08,3.321-20.174,9.113c-12.986,14.768-27.46,31.624-43.018,50.1l-0.08,0.097   c-4.26,5.325-6.816,11.812-8.046,20.417l-0.037,0.351c-0.875,12.256-2.535,23.781-4.292,35.982l-0.671,4.667   c-0.517,3.622-0.961,8.304-0.357,13.209c-1.029,11.217,2.079,22.437,8.812,31.372c7.276,9.654,18.021,15.56,30.254,16.629   c1.429,0.125,2.85,0.187,4.258,0.187c5.728,0,11.236-1.026,16.132-3.023c1.278-0.521,1.892-1.981,1.37-3.259   s-1.979-1.892-3.259-1.371c-5.367,2.189-11.615,3.051-18.065,2.485c-10.804-0.944-20.284-6.15-26.696-14.657   c-1.917-2.544-3.491-5.303-4.732-8.199c6.952,9.686,17.478,16.278,29.412,18.267l0.202,0.029c2.221,0.278,4.433,0.416,6.623,0.416   c6.668,0,13.127-1.278,18.967-3.781l0.459-0.225c9.539-5.299,15.992-13.611,21.619-21.194h161.145   c5.627,7.582,12.08,15.894,21.619,21.194l0.459,0.225c5.84,2.503,12.298,3.781,18.967,3.781c2.189,0,4.402-0.138,6.623-0.416   l0.202-0.029c11.934-1.989,22.459-8.581,29.412-18.267c-1.241,2.896-2.815,5.655-4.732,8.199   c-6.412,8.507-15.893,13.713-26.696,14.657c-6.457,0.564-12.699-0.296-18.065-2.485c-1.282-0.521-2.738,0.092-3.259,1.371   c-0.521,1.278,0.092,2.738,1.37,3.259c4.896,1.997,10.404,3.023,16.132,3.023c1.407,0,2.829-0.062,4.258-0.187   c12.233-1.07,22.978-6.976,30.254-16.629c6.734-8.935,9.841-20.155,8.813-31.372C366.531,237.969,366.087,233.287,365.57,229.665z    M297.64,239.961v2.198c0,2.42-1.96,4.39-4.38,4.39H107.98c-2.42,0-4.38-1.97-4.38-4.39v-3.91c4.13-6.085,6.2-13.481,5.669-20.918   L108.174,202c-0.533-7.467-0.521-15.264,3.134-21.682l2.542-4.407v56.927c0,1.38,1.12,2.5,2.5,2.5h168.54c1.38,0,2.5-1.12,2.5-2.5   v-54.976l1.214,2.295l0.075,0.137c3.668,6.442,3.681,14.239,3.147,21.706l-1.095,15.33   C290.149,225.479,292.686,233.582,297.64,239.961z M276.827,157.889l5.563,10.519v61.931H118.85v-63.093l5.399-9.357H276.827z    M274.149,152.889H127.102c1.753-3.573,1.933-7.598,0.713-11.2h145.624C272.218,145.29,272.395,149.316,274.149,152.889z    M93.175,268.876c-6.044,2.537-12.976,3.417-20.072,2.547c-10.062-1.706-18.837-7.588-24.166-16.183   c-1.054-3.042-2.129-5.194-3.085-7.104c-2.101-4.202-2.584-9.622-1.521-17.057l0.668-4.655c1.775-12.326,3.452-23.97,4.356-36.515   c0.969-6.646,2.844-11.535,5.892-15.366c15.497-18.402,29.909-35.187,42.837-49.887c3.194-3.633,7.811-5.717,12.664-5.717h36.693   c5.146,0.644,5.19,6.045,5.178,6.667c-0.018,0.963-0.358,5.753-5.115,6.084H116.12c-0.272,0-0.537,0.041-0.802,0.084   c-4.762-0.465-9.643,1.387-12.869,5.359l-38.611,52.154c-1.644,2.219-1.176,5.351,1.044,6.993c2.219,1.644,5.351,1.176,6.993-1.044   l38.396-51.87c1.598-1.892,4.392-2.232,6.399-0.764c2.033,1.486,2.546,4.3,1.166,6.408l-15.204,26.336   c-4.987,8.758-5.078,18.329-4.433,27.366l1.095,15.331c0.507,7.095-2.372,14.144-7.7,18.856L80.12,247.045   c-2.068,1.83-2.263,4.989-0.433,7.058c0.988,1.117,2.364,1.688,3.747,1.688c1.177,0,2.359-0.414,3.311-1.254l7.909-6.994   c2.002,4.942,6.668,8.521,12.21,8.95C102.945,261.334,98.612,265.801,93.175,268.876z M354.148,248.136   c-0.956,1.91-2.031,4.062-3.085,7.104c-5.329,8.595-14.104,14.477-24.166,16.183c-7.098,0.87-14.028-0.01-20.072-2.547   c-5.416-3.064-9.736-7.507-13.643-12.327h0.078c5.724,0,10.668-3.366,12.98-8.215l7.014,6.203c0.951,0.841,2.134,1.254,3.311,1.254   c1.383,0,2.76-0.57,3.747-1.688c1.83-2.069,1.636-5.229-0.433-7.058l-11.474-10.146c-5.328-4.712-8.207-11.761-7.7-18.856   l1.095-15.33c0.644-9.013,0.556-18.556-4.393-27.295l-13.752-26.005l-0.237-0.402c-1.38-2.107-0.868-4.921,1.165-6.408   c1.999-1.46,4.777-1.132,6.38,0.74l37.114,51.83c1.608,2.246,4.731,2.761,6.977,1.154c2.245-1.608,2.762-4.731,1.154-6.977   l-37.219-51.976l-0.186-0.242c-2.937-3.616-7.248-5.472-11.591-5.427c-0.098-0.006-0.195-0.016-0.294-0.016h-34.423   c-4.757-0.331-5.097-5.121-5.115-6.084c-0.013-0.622,0.032-6.022,5.178-6.667h36.693c4.854,0,9.47,2.083,12.664,5.716   c12.928,14.701,27.34,31.486,42.837,49.888c3.048,3.831,4.923,8.719,5.892,15.366c0.904,12.545,2.581,24.189,4.356,36.515   l0.668,4.655C356.732,238.514,356.249,243.934,354.148,248.136z" fill="#333333"/></g></svg>